<svg width="24" height="24" fill="none" xmlns="http://www.w3.org/2000/svg">
    <path d="M13.536 11.816c0 3.765-3.03 6.817-6.768 6.817C3.031 18.633 0 15.579 0 11.816 0 8.054 3.031 5 6.768 5c3.737 0 6.768 3.052 6.768 6.816ZM20.962 11.817c0 3.543-1.515 6.416-3.385 6.416-1.87 0-3.385-2.873-3.385-6.416 0-3.544 1.515-6.417 3.385-6.417 1.87 0 3.385 2.873 3.385 6.417ZM24 11.816c0 3.174-.534 5.747-1.191 5.747-.658 0-1.192-2.573-1.192-5.747 0-3.173.534-5.747 1.192-5.747.657 0 1.191 2.571 1.191 5.747Z" fill="#fff"></path>
</svg>