<svg width="79" height="72" viewBox="0 0 79 72" fill="none" xmlns="http://www.w3.org/2000/svg">
<g clip-path="url(#clip0_179_3013)">
<rect x="0.786133" y="0.590088" width="78" height="71" rx="23.487" fill="white" fill-opacity="0.04"/>
<g filter="url(#filter0_b_179_3013)">
<rect x="0.786133" y="-5.64868" width="325.05" height="169.997" fill="white" fill-opacity="0.01"/>
</g>
<rect x="1.78613" y="1.46082" width="76" height="69" rx="22.487" stroke="url(#paint0_linear_179_3013)" stroke-opacity="0.4" stroke-width="2"/>
<path d="M46.1611 26.2108C45.1261 26.2108 44.2861 27.0508 44.2861 28.0858V43.8358C44.2861 44.8708 45.1261 45.7108 46.1611 45.7108H46.9111C47.9461 45.7108 48.7861 44.8708 48.7861 43.8358V28.0858C48.7861 27.0498 47.9461 26.2108 46.9111 26.2108H46.1611ZM37.5361 32.5858C37.5361 31.5498 38.3761 30.7108 39.4111 30.7108H40.1611C41.1971 30.7108 42.0361 31.5508 42.0361 32.5858V43.8358C42.0361 44.8708 41.1961 45.7108 40.1611 45.7108H39.4111C38.9139 45.7108 38.4369 45.5133 38.0853 45.1616C37.7337 44.81 37.5361 44.3331 37.5361 43.8358V32.5858ZM30.7861 37.0858C30.7861 36.0498 31.6261 35.2108 32.6611 35.2108H33.4111C34.4471 35.2108 35.2861 36.0508 35.2861 37.0858V43.8358C35.2861 44.8708 34.4461 45.7108 33.4111 45.7108H32.6611C32.1639 45.7108 31.6869 45.5133 31.3353 45.1616C30.9837 44.81 30.7861 44.3331 30.7861 43.8358V37.0858Z" fill="url(#paint1_linear_179_3013)"/>
<rect x="77.7861" y="70.4608" width="76" height="69" rx="22.487" transform="rotate(180 77.7861 70.4608)" stroke="url(#paint2_linear_179_3013)" stroke-opacity="0.4" stroke-width="2"/>
</g>
<rect x="1.78613" y="1.59009" width="76" height="69" rx="22.487" stroke="white" stroke-opacity="0.1" stroke-width="2"/>
<defs>
<filter id="filter0_b_179_3013" x="-9.87497" y="-16.3098" width="346.372" height="191.32" filterUnits="userSpaceOnUse" color-interpolation-filters="sRGB">
<feFlood flood-opacity="0" result="BackgroundImageFix"/>
<feGaussianBlur in="BackgroundImageFix" stdDeviation="5.33055"/>
<feComposite in2="SourceAlpha" operator="in" result="effect1_backgroundBlur_179_3013"/>
<feBlend mode="normal" in="SourceGraphic" in2="effect1_backgroundBlur_179_3013" result="shape"/>
</filter>
<linearGradient id="paint0_linear_179_3013" x1="76.7857" y1="0.460821" x2="58.3202" y2="12.5239" gradientUnits="userSpaceOnUse">
<stop stop-color="white"/>
<stop offset="1" stop-color="white" stop-opacity="0"/>
</linearGradient>
<linearGradient id="paint1_linear_179_3013" x1="30.7861" y1="35.9608" x2="48.7861" y2="35.9608" gradientUnits="userSpaceOnUse">
<stop stop-color="#EF1B13"/>
<stop offset="0.381809" stop-color="#FFA800"/>
<stop offset="0.761279" stop-color="#EB00FF"/>
<stop offset="1" stop-color="#5200FF"/>
</linearGradient>
<linearGradient id="paint2_linear_179_3013" x1="154.786" y1="71.4608" x2="140.559" y2="79.7705" gradientUnits="userSpaceOnUse">
<stop stop-color="white"/>
<stop offset="1" stop-color="white" stop-opacity="0"/>
</linearGradient>
<clipPath id="clip0_179_3013">
<rect x="0.786133" y="0.590088" width="78" height="71" rx="23.487" fill="white"/>
</clipPath>
</defs>
</svg>
