<svg width="98" height="90" viewBox="0 0 98 90" fill="none" xmlns="http://www.w3.org/2000/svg">
<g clip-path="url(#clip0_5_244)">
<rect x="0.0732422" y="0.870117" width="97" height="89" rx="23.487" fill="white" fill-opacity="0.04"/>
<g filter="url(#filter0_b_5_244)">
<rect x="0.0732422" y="-5.36865" width="325.05" height="169.997" fill="white" fill-opacity="0.01"/>
</g>
<rect x="1.07324" y="1.71436" width="95" height="87" rx="22.487" stroke="url(#paint0_linear_5_244)" stroke-opacity="0.4" stroke-width="2"/>
<path fill-rule="evenodd" clip-rule="evenodd" d="M52.4957 29.6069C52.7153 29.7291 52.8877 29.9214 52.9853 30.153C53.0829 30.3847 53.1001 30.6423 53.0342 30.8849L50.0462 41.8394H60.9482C61.1674 41.8394 61.3819 41.9035 61.5652 42.0237C61.7485 42.144 61.8927 42.3152 61.98 42.5163C62.0673 42.7174 62.094 42.9396 62.0567 43.1557C62.0194 43.3717 61.9198 43.5722 61.7702 43.7324L46.0202 60.6074C45.8486 60.7916 45.6203 60.9129 45.3716 60.952C45.123 60.9911 44.8684 60.9457 44.6486 60.823C44.4288 60.7003 44.2565 60.5075 44.1593 60.2753C44.062 60.0432 44.0454 59.7851 44.1122 59.5424L47.1002 48.5894H36.1982C35.9789 48.5894 35.7645 48.5253 35.5812 48.405C35.3978 48.2848 35.2537 48.1136 35.1663 47.9125C35.079 47.7114 35.0523 47.4891 35.0896 47.2731C35.1269 47.057 35.2265 46.8566 35.3762 46.6964L51.1262 29.8214C51.2977 29.6379 51.5258 29.517 51.774 29.4782C52.0222 29.4393 52.2762 29.4846 52.4957 29.6069Z" fill="url(#paint1_linear_5_244)"/>
<rect x="96.0732" y="88.7144" width="95" height="87" rx="22.487" transform="rotate(180 96.0732 88.7144)" stroke="url(#paint2_linear_5_244)" stroke-opacity="0.4" stroke-width="2"/>
</g>
<rect x="1.07324" y="1.87012" width="95" height="87" rx="22.487" stroke="white" stroke-opacity="0.1" stroke-width="2"/>
<defs>
<filter id="filter0_b_5_244" x="-10.5879" y="-16.0298" width="346.372" height="191.32" filterUnits="userSpaceOnUse" color-interpolation-filters="sRGB">
<feFlood flood-opacity="0" result="BackgroundImageFix"/>
<feGaussianBlur in="BackgroundImageFix" stdDeviation="5.33055"/>
<feComposite in2="SourceAlpha" operator="in" result="effect1_backgroundBlur_5_244"/>
<feBlend mode="normal" in="SourceGraphic" in2="effect1_backgroundBlur_5_244" result="shape"/>
</filter>
<linearGradient id="paint0_linear_5_244" x1="94.5855" y1="0.714363" x2="71.5131" y2="15.6676" gradientUnits="userSpaceOnUse">
<stop stop-color="white"/>
<stop offset="1" stop-color="white" stop-opacity="0"/>
</linearGradient>
<linearGradient id="paint1_linear_5_244" x1="35.0732" y1="45.2151" x2="62.0731" y2="45.2151" gradientUnits="userSpaceOnUse">
<stop stop-color="#EF1B13"/>
<stop offset="0.381809" stop-color="#FFA800"/>
<stop offset="0.761279" stop-color="#EB00FF"/>
<stop offset="1" stop-color="#5200FF"/>
</linearGradient>
<linearGradient id="paint2_linear_5_244" x1="191.586" y1="89.7144" x2="173.822" y2="100.008" gradientUnits="userSpaceOnUse">
<stop stop-color="white"/>
<stop offset="1" stop-color="white" stop-opacity="0"/>
</linearGradient>
<clipPath id="clip0_5_244">
<rect x="0.0732422" y="0.870117" width="97" height="89" rx="23.487" fill="white"/>
</clipPath>
</defs>
</svg>
