<svg width="98" height="90" viewBox="0 0 98 90" fill="none" xmlns="http://www.w3.org/2000/svg">
<g clip-path="url(#clip0_5_254)">
<rect x="0.0732422" y="0.870117" width="97" height="89" rx="23.487" fill="white" fill-opacity="0.04"/>
<g filter="url(#filter0_b_5_254)">
<rect x="0.0732422" y="-5.36865" width="325.05" height="169.997" fill="white" fill-opacity="0.01"/>
</g>
<rect x="1.07324" y="1.71436" width="95" height="87" rx="22.487" stroke="url(#paint0_linear_5_254)" stroke-opacity="0.4" stroke-width="2"/>
<path fill-rule="evenodd" clip-rule="evenodd" d="M48.5732 29.4644C46.4847 29.4644 44.4816 30.294 43.0048 31.7709C41.5279 33.2477 40.6982 35.2508 40.6982 37.3394V41.8394C39.5048 41.8394 38.3602 42.3135 37.5163 43.1574C36.6723 44.0013 36.1982 45.1459 36.1982 46.3394V56.4644C36.1982 57.6578 36.6723 58.8024 37.5163 59.6463C38.3602 60.4902 39.5048 60.9644 40.6982 60.9644H56.4482C57.6417 60.9644 58.7863 60.4902 59.6302 59.6463C60.4741 58.8024 60.9482 57.6578 60.9482 56.4644V46.3394C60.9482 45.1459 60.4741 44.0013 59.6302 43.1574C58.7863 42.3135 57.6417 41.8394 56.4482 41.8394V37.3394C56.4482 32.9894 52.9232 29.4644 48.5732 29.4644ZM54.1982 41.8394V37.3394C54.1982 35.8475 53.6056 34.4168 52.5507 33.3619C51.4958 32.307 50.0651 31.7144 48.5732 31.7144C47.0814 31.7144 45.6507 32.307 44.5958 33.3619C43.5409 34.4168 42.9482 35.8475 42.9482 37.3394V41.8394H54.1982Z" fill="url(#paint1_linear_5_254)"/>
<rect x="96.0732" y="88.7144" width="95" height="87" rx="22.487" transform="rotate(180 96.0732 88.7144)" stroke="url(#paint2_linear_5_254)" stroke-opacity="0.4" stroke-width="2"/>
</g>
<rect x="1.07324" y="1.87012" width="95" height="87" rx="22.487" stroke="white" stroke-opacity="0.1" stroke-width="2"/>
<defs>
<filter id="filter0_b_5_254" x="-10.5879" y="-16.0298" width="346.372" height="191.32" filterUnits="userSpaceOnUse" color-interpolation-filters="sRGB">
<feFlood flood-opacity="0" result="BackgroundImageFix"/>
<feGaussianBlur in="BackgroundImageFix" stdDeviation="5.33055"/>
<feComposite in2="SourceAlpha" operator="in" result="effect1_backgroundBlur_5_254"/>
<feBlend mode="normal" in="SourceGraphic" in2="effect1_backgroundBlur_5_254" result="shape"/>
</filter>
<linearGradient id="paint0_linear_5_254" x1="94.5855" y1="0.714363" x2="71.5131" y2="15.6676" gradientUnits="userSpaceOnUse">
<stop stop-color="white"/>
<stop offset="1" stop-color="white" stop-opacity="0"/>
</linearGradient>
<linearGradient id="paint1_linear_5_254" x1="36.1982" y1="45.2144" x2="60.9482" y2="45.2144" gradientUnits="userSpaceOnUse">
<stop stop-color="#EF1B13"/>
<stop offset="0.381809" stop-color="#FFA800"/>
<stop offset="0.761279" stop-color="#EB00FF"/>
<stop offset="1" stop-color="#5200FF"/>
</linearGradient>
<linearGradient id="paint2_linear_5_254" x1="191.586" y1="89.7144" x2="173.822" y2="100.008" gradientUnits="userSpaceOnUse">
<stop stop-color="white"/>
<stop offset="1" stop-color="white" stop-opacity="0"/>
</linearGradient>
<clipPath id="clip0_5_254">
<rect x="0.0732422" y="0.870117" width="97" height="89" rx="23.487" fill="white"/>
</clipPath>
</defs>
</svg>
