<svg width="98" height="90" viewBox="0 0 98 90" fill="none" xmlns="http://www.w3.org/2000/svg">
<g clip-path="url(#clip0_5_262)">
<rect x="0.0732422" y="0.870117" width="97" height="89" rx="23.487" fill="white" fill-opacity="0.04"/>
<g filter="url(#filter0_b_5_262)">
<rect x="0.0732422" y="-5.36865" width="325.05" height="169.997" fill="white" fill-opacity="0.01"/>
</g>
<rect x="1.07324" y="1.71436" width="95" height="87" rx="22.487" stroke="url(#paint0_linear_5_262)" stroke-opacity="0.4" stroke-width="2"/>
<path d="M46.3232 55.3394C46.0249 55.3394 45.7387 55.4579 45.5277 55.6689C45.3168 55.8798 45.1982 56.166 45.1982 56.4644C45.1982 56.7627 45.3168 57.0489 45.5277 57.2599C45.7387 57.4708 46.0249 57.5894 46.3232 57.5894H50.8232C51.1216 57.5894 51.4078 57.4708 51.6187 57.2599C51.8297 57.0489 51.9482 56.7627 51.9482 56.4644C51.9482 56.166 51.8297 55.8798 51.6187 55.6689C51.4078 55.4579 51.1216 55.3394 50.8232 55.3394H46.3232Z" fill="url(#paint1_linear_5_262)"/>
<path fill-rule="evenodd" clip-rule="evenodd" d="M43.5107 28.3394C42.1681 28.3394 40.8804 28.8727 39.931 29.8221C38.9816 30.7715 38.4482 32.0592 38.4482 33.4019V57.0269C38.4482 58.3695 38.9816 59.6572 39.931 60.6066C40.8804 61.556 42.1681 62.0894 43.5107 62.0894H53.6357C54.9784 62.0894 56.2661 61.556 57.2155 60.6066C58.1649 59.6572 58.6982 58.3695 58.6982 57.0269V33.4019C58.6982 32.0592 58.1649 30.7715 57.2155 29.8221C56.2661 28.8727 54.9784 28.3394 53.6357 28.3394H43.5107ZM41.8232 33.4019C41.8232 32.4704 42.5792 31.7144 43.5107 31.7144H45.1982V32.2769C45.1982 33.2084 45.9542 33.9644 46.8857 33.9644H50.2607C51.1922 33.9644 51.9482 33.2084 51.9482 32.2769V31.7144H53.6357C54.5672 31.7144 55.3232 32.4704 55.3232 33.4019V57.0269C55.3232 57.9584 54.5672 58.7144 53.6357 58.7144H43.5107C43.0632 58.7144 42.634 58.5366 42.3175 58.2201C42.001 57.9036 41.8232 57.4744 41.8232 57.0269V33.4019Z" fill="url(#paint2_linear_5_262)"/>
<rect x="96.0732" y="88.7144" width="95" height="87" rx="22.487" transform="rotate(180 96.0732 88.7144)" stroke="url(#paint3_linear_5_262)" stroke-opacity="0.4" stroke-width="2"/>
</g>
<rect x="1.07324" y="1.87012" width="95" height="87" rx="22.487" stroke="white" stroke-opacity="0.1" stroke-width="2"/>
<defs>
<filter id="filter0_b_5_262" x="-10.5879" y="-16.0298" width="346.372" height="191.32" filterUnits="userSpaceOnUse" color-interpolation-filters="sRGB">
<feFlood flood-opacity="0" result="BackgroundImageFix"/>
<feGaussianBlur in="BackgroundImageFix" stdDeviation="5.33055"/>
<feComposite in2="SourceAlpha" operator="in" result="effect1_backgroundBlur_5_262"/>
<feBlend mode="normal" in="SourceGraphic" in2="effect1_backgroundBlur_5_262" result="shape"/>
</filter>
<linearGradient id="paint0_linear_5_262" x1="94.5855" y1="0.714363" x2="71.5131" y2="15.6676" gradientUnits="userSpaceOnUse">
<stop stop-color="white"/>
<stop offset="1" stop-color="white" stop-opacity="0"/>
</linearGradient>
<linearGradient id="paint1_linear_5_262" x1="45.1982" y1="56.4644" x2="51.9482" y2="56.4644" gradientUnits="userSpaceOnUse">
<stop stop-color="#EF1B13"/>
<stop offset="0.381809" stop-color="#FFA800"/>
<stop offset="0.761279" stop-color="#EB00FF"/>
<stop offset="1" stop-color="#5200FF"/>
</linearGradient>
<linearGradient id="paint2_linear_5_262" x1="38.4482" y1="45.2144" x2="58.6982" y2="45.2144" gradientUnits="userSpaceOnUse">
<stop stop-color="#EF1B13"/>
<stop offset="0.381809" stop-color="#FFA800"/>
<stop offset="0.761279" stop-color="#EB00FF"/>
<stop offset="1" stop-color="#5200FF"/>
</linearGradient>
<linearGradient id="paint3_linear_5_262" x1="191.586" y1="89.7144" x2="173.822" y2="100.008" gradientUnits="userSpaceOnUse">
<stop stop-color="white"/>
<stop offset="1" stop-color="white" stop-opacity="0"/>
</linearGradient>
<clipPath id="clip0_5_262">
<rect x="0.0732422" y="0.870117" width="97" height="89" rx="23.487" fill="white"/>
</clipPath>
</defs>
</svg>
